<svg width="512" height="512" viewBox="0 0 512 512" fill="none" xmlns="http://www.w3.org/2000/svg">
<rect width="512" height="512" rx="145" fill="white"/>
<path d="M261.694 191.569C258.899 187.728 237.069 138.927 235.912 133.806C235.104 130.204 234.078 127.188 234.122 123.326C234.187 96.614 261.737 91.5798 272.478 99.5217C276.451 102.451 276.451 109.937 276.451 109.937V187.403C276.451 187.403 276.451 196.321 270.491 196.321C268.505 196.321 265.798 197.276 261.694 191.591V191.569Z" fill="black"/>
<path d="M205.328 180.589C195.024 167.895 202.49 151.122 213.907 141.553C217.705 138.363 223.49 139.426 225.935 143.744C233.816 157.545 247.46 187.598 246.303 191.547C241.74 207.041 211.702 188.423 205.328 180.589Z" fill="black"/>
<path d="M322.687 81C328.941 81 336.319 81.0567 342.094 83.2207C344.869 84.2604 346.961 85.6829 348.364 87.5605C349.731 89.3903 350.758 92.071 350.695 96.2354C350.695 96.2603 350.694 96.2856 350.694 96.3105C350.694 138.781 350.771 183.528 350.847 227.983C350.924 272.44 351 316.604 351 357.914C351 395.897 321.301 419.792 283.739 427.955C246.091 436.136 203.034 427.804 179.457 403.636C165.907 389.743 161.706 371.86 165.511 359.274C167.383 353.084 171.15 348.199 176.72 345.333C182.332 342.445 190.328 341.328 201.086 343.8L201.088 343.801C205.158 344.735 207.876 346.913 210.337 350.117C211.611 351.777 212.786 353.675 214.04 355.834C215.239 357.898 216.603 360.368 218.025 362.68C220.946 367.427 224.678 372.489 230.531 376.292C236.437 380.129 244.055 382.399 254.314 382.399C264.719 382.399 273.106 379.663 279.651 374.769C286.156 369.904 290.466 363.191 293.255 355.841C298.766 341.312 298.648 323.446 297.185 309.232C295.482 292.609 289.685 279.513 278.924 272.164C268.124 264.79 253.667 264.114 236.737 269.311C231.759 270.839 227.987 273.074 225.127 275.976C222.283 278.861 220.606 282.137 219.422 285.315C218.304 288.316 217.459 291.764 216.669 294.459C215.82 297.355 214.89 299.975 213.458 302.416L213.457 302.418C203.765 318.953 186.161 321.841 174.25 314.846C168.305 311.354 163.534 305.284 161.752 296.657C159.959 287.978 161.142 276.386 167.836 262.034L168.32 261.014C178.615 239.732 196.372 227.469 217.344 221.333C238.775 215.063 263.419 215.26 286.192 218.962C292.023 219.915 297.277 215.4 297.277 209.536V96.3105C297.277 96.1761 297.27 96.0429 297.26 95.9111C297.307 91.8191 298.244 89.1473 299.448 87.3418C300.688 85.4826 302.479 84.135 304.833 83.1553C309.838 81.0716 316.391 81 322.687 81Z" fill="black"/>
</svg>
