<svg width="512" height="512" viewBox="0 0 512 512" fill="none" xmlns="http://www.w3.org/2000/svg">
<rect width="512" height="512" rx="145" fill="white"/>
<g clip-path="url(#clip0_1423_23404)">
<path d="M261.694 191.569C258.899 187.728 237.069 138.927 235.912 133.806C235.104 130.204 234.078 127.188 234.122 123.326C234.187 96.614 261.737 91.5798 272.478 99.5217C276.451 102.451 276.451 109.937 276.451 109.937V187.403C276.451 187.403 276.451 196.321 270.491 196.321C268.505 196.321 265.798 197.276 261.694 191.591V191.569Z" fill="black"/>
<path d="M205.328 180.589C195.024 167.895 202.49 151.122 213.907 141.553C217.705 138.363 223.49 139.426 225.935 143.744C233.816 157.545 247.46 187.598 246.303 191.547C241.74 207.041 211.702 188.423 205.328 180.589Z" fill="black"/>
<path d="M292.255 96.3103C292.212 76 310.571 76 322.687 76C334.803 76 356 76 355.694 96.3103C355.694 181.24 356 275.284 356 357.914C356 440.544 226.175 458.684 175.879 407.127C146.735 377.248 155.838 328.273 202.206 338.927C224.232 343.983 216.352 377.4 254.315 377.4C292.277 377.4 295.093 337.734 292.212 309.742C288.959 277.996 270.513 264.174 238.204 274.091C220.892 279.407 224.735 293.077 217.771 304.947C195.679 342.638 135.209 320.158 163.304 259.921C185.2 212.964 240.54 206.476 286.994 214.028C289.767 214.483 292.277 212.335 292.277 209.536V96.3103H292.255Z" fill="black"/>
</g>
<defs>
<clipPath id="clip0_1423_23404">
<rect width="200" height="360" fill="white" transform="translate(156 76)"/>
</clipPath>
</defs>
</svg>
